<?xml version="1.0" standalone="no"?>
<!DOCTYPE svg PUBLIC "-//W3C//DTD SVG 20010904//EN"
 "http://www.w3.org/TR/2001/REC-SVG-20010904/DTD/svg10.dtd">
<svg version="1.0" xmlns="http://www.w3.org/2000/svg"
 width="1280.000000pt" height="938.000000pt" viewBox="0 0 1280.000000 938.000000"
 preserveAspectRatio="xMidYMid meet">
<metadata>
Created by potrace 1.15, written by Peter Selinger 2001-2017
</metadata>
<g transform="translate(0.000000,938.000000) scale(0.100000,-0.100000)"
fill="#000000" stroke="none">
<path d="M4143 9327 c-57 -28 -103 -56 -103 -62 0 -5 16 -52 35 -104 l36 -93
9 -527 c5 -289 10 -642 11 -785 l1 -258 -217 -196 -217 -195 -526 72 c-290 40
-754 104 -1031 142 -277 38 -506 67 -509 65 -4 -5 -76 -253 -497 -1711 l-207
-720 -439 -385 c-242 -212 -448 -392 -458 -400 -12 -11 -20 -37 -25 -78 l-7
-62 435 0 436 0 5 -22 c3 -13 34 -257 71 -543 144 -1146 294 -2308 296 -2310
2 -1 68 -11 147 -23 l145 -21 100 41 c56 23 104 44 108 47 3 3 -9 132 -27 286
-19 154 -56 471 -84 705 -117 976 -134 1121 -128 1126 7 8 440 -16 448 -25 4
-3 14 -73 23 -156 9 -82 48 -433 86 -780 37 -346 79 -722 91 -833 19 -173 20
-205 8 -213 -12 -7 -11 -10 3 -21 13 -10 21 -51 35 -182 l18 -169 55 -13 c30
-7 195 -47 365 -89 528 -128 709 -172 1045 -254 333 -80 1181 -287 1690 -410
157 -38 379 -92 493 -120 l209 -51 1206 195 c664 107 1461 235 1772 285 311
50 647 104 747 120 100 17 191 30 202 30 17 0 25 15 46 83 14 46 25 87 25 93
1 23 21 35 90 49 41 8 329 64 640 125 311 61 643 127 739 145 96 19 178 40
183 47 4 7 8 23 8 35 0 11 56 475 125 1030 69 554 132 1064 140 1133 9 69 18
140 21 159 l5 34 66 -6 c36 -4 68 -8 70 -10 2 -3 -12 -128 -32 -278 -20 -151
-81 -618 -136 -1038 -55 -421 -98 -770 -95 -777 3 -7 29 -19 59 -28 51 -15 62
-15 162 4 59 10 108 20 110 22 1 2 71 518 154 1148 84 630 157 1178 163 1219
l11 74 118 -6 117 -5 4 61 c3 55 0 66 -24 97 -15 19 -432 598 -927 1285 l-900
1250 -683 455 -683 455 -242 535 c-133 294 -254 560 -268 591 l-25 57 -63 -18
c-68 -19 -75 -21 -647 -176 -217 -58 -507 -137 -643 -174 l-248 -67 -162 37
c-89 21 -499 115 -912 210 -412 94 -756 173 -762 175 -15 5 -18 184 -4 213 37
73 74 163 69 167 -3 3 -189 50 -414 104 -225 54 -542 131 -705 170 -162 39
-297 71 -300 70 -2 0 -50 -23 -106 -52z m129 -83 c20 -79 25 -70 -73 -126
l-47 -27 -26 72 c-14 40 -26 75 -26 79 0 10 132 78 145 74 5 -1 17 -34 27 -72z
m195 35 c92 -22 287 -69 433 -104 507 -121 695 -168 699 -171 3 -2 -6 -26 -19
-54 -19 -41 -27 -49 -44 -45 -12 3 -277 62 -589 130 -313 69 -583 128 -600
133 -25 7 -34 16 -43 48 -22 75 -26 104 -15 104 6 0 86 -18 178 -41z m481
-269 c327 -71 596 -130 598 -130 2 0 5 -60 6 -132 3 -127 4 -133 24 -136 20
-3 23 -13 35 -135 7 -73 13 -148 13 -167 1 -31 -60 -114 -603 -812 -333 -428
-606 -776 -608 -774 -3 3 -93 2287 -93 2374 0 46 2 53 18 48 9 -3 284 -64 610
-136z m-608 -1097 c26 -670 47 -1219 46 -1220 -5 -5 -158 -24 -162 -20 -3 2
-13 150 -24 328 -13 221 -21 515 -24 924 -3 330 -9 722 -12 871 l-7 271 64 36
c35 20 65 34 68 32 2 -3 25 -553 51 -1222z m1669 601 c207 -48 614 -142 904
-209 l528 -122 302 82 c166 46 489 133 717 195 228 61 437 118 464 126 27 8
53 14 58 14 5 0 -44 -66 -109 -147 -113 -143 -594 -749 -2382 -3003 l-853
-1075 -42 -2 c-22 -2 -495 -16 -1051 -33 -555 -16 -1154 -34 -1330 -40 -176
-5 -473 -14 -660 -20 -187 -6 -482 -15 -655 -20 -173 -5 -475 -14 -670 -20
-195 -6 -483 -15 -640 -20 -157 -6 -320 -10 -363 -10 l-78 0 362 318 c337 295
392 341 375 314 -3 -6 -39 -94 -80 -197 l-74 -186 111 3 110 3 17 50 17 50
214 131 214 131 490 22 c556 25 858 38 1025 46 l115 5 94 -146 c52 -80 99
-148 106 -150 10 -4 224 43 233 51 2 2 -2 11 -8 22 -9 14 15 265 114 1188 70
644 127 1175 129 1182 3 15 427 397 433 390 3 -2 15 -180 28 -396 13 -215 25
-393 27 -395 9 -9 202 23 214 35 7 8 289 369 625 804 l613 790 -12 140 c-7 77
-15 150 -18 163 -3 12 -2 22 2 22 4 0 177 -39 384 -86z m3279 -509 c143 -314
312 -685 377 -825 65 -140 347 -759 627 -1375 281 -616 580 -1273 665 -1460
l155 -340 -34 -69 -34 -68 -246 548 c-136 302 -349 776 -473 1054 -588 1308
-873 1942 -1068 2377 -117 260 -214 473 -217 473 -4 -1 -3267 -4058 -3326
-4135 -9 -12 -309 -18 -2055 -39 -2811 -35 -2769 -34 -2769 -57 0 -18 -15 -19
-414 -19 -253 0 -417 4 -421 10 -11 17 7 55 36 78 l30 24 937 29 c515 15 1092
33 1282 39 190 5 640 19 1000 30 360 11 806 24 990 30 184 6 481 15 660 20
179 5 400 12 493 16 l167 7 858 1081 c472 594 1229 1548 1682 2119 453 571
827 1034 831 1030 5 -5 125 -265 267 -578z m3 -350 c407 -908 844 -1879 1199
-2670 183 -407 374 -832 425 -945 50 -113 87 -206 81 -207 -6 -2 -141 12 -300
30 l-290 32 -44 100 c-24 55 -94 217 -157 360 -144 331 -1154 2645 -1287 2949
l-101 230 42 235 c23 130 44 247 47 260 3 15 -32 -22 -91 -95 -115 -141 -118
-145 -113 -122 5 25 322 418 330 410 4 -4 120 -259 259 -567z m-1187 -597
c-318 -392 -701 -866 -852 -1053 -151 -187 -284 -349 -295 -360 -33 -32 23 38
498 630 1077 1342 1219 1517 1223 1506 2 -5 -257 -331 -574 -723z m880 35
c254 -580 394 -901 606 -1388 340 -779 420 -962 610 -1397 l186 -426 -17 -154
c-10 -84 -84 -754 -164 -1488 -81 -734 -153 -1348 -160 -1365 -7 -16 -23 -67
-36 -113 -18 -65 -27 -83 -43 -87 -12 -2 -79 -13 -151 -25 -172 -27 -1362
-218 -2215 -355 -223 -36 -571 -92 -775 -125 -203 -33 -453 -73 -554 -89 -102
-17 -186 -29 -187 -28 -3 3 -21 522 -18 526 2 2 196 27 431 57 396 49 619 76
1858 229 248 31 722 89 1053 130 332 41 615 75 628 75 15 0 24 6 24 15 0 12
-8 14 -37 10 -21 -3 -186 -24 -368 -46 -181 -22 -654 -80 -1050 -129 -2128
-263 -2536 -313 -2539 -309 -4 4 -12 213 -66 1629 -17 437 -37 953 -44 1145
l-15 350 27 37 c69 95 2838 3708 2842 3708 3 0 81 -174 174 -387z m1746 -435
l175 -116 885 -1228 c487 -675 896 -1243 909 -1262 l24 -35 -373 7 -373 8 22
-36 c11 -20 30 -52 42 -71 11 -19 25 -32 30 -29 5 3 -4 30 -21 59 l-30 53 217
-4 c120 -3 282 -7 361 -10 l142 -6 0 -27 0 -26 -117 0 c-160 0 -386 -24 -396
-41 -6 -10 -34 -14 -103 -14 l-94 0 51 -82 51 -81 -403 6 c-222 4 -613 10
-868 14 l-463 6 4 58 c2 32 7 61 9 64 3 3 140 -10 303 -28 275 -31 300 -35
315 -55 16 -22 17 -20 74 93 31 63 57 121 57 128 0 7 -43 107 -96 222 -52 116
-275 604 -494 1085 -219 481 -518 1138 -665 1460 -147 322 -270 593 -273 604
-3 11 174 -101 459 -291 255 -170 543 -361 639 -425z m-8311 577 c1016 -140
1264 -175 1267 -178 3 -3 -244 -2305 -249 -2321 -2 -6 -1691 2513 -1731 2582
-4 7 -2 12 5 12 7 0 326 -43 708 -95z m111 -1240 c478 -718 870 -1307 870
-1309 0 -3 -26 -10 -57 -16 -32 -7 -62 -14 -68 -17 -6 -2 -353 520 -771 1160
-417 641 -761 1163 -764 1160 -3 -2 -189 -558 -415 -1236 l-410 -1232 -50 3
c-27 2 -52 5 -54 7 -2 2 35 102 82 222 87 222 114 313 659 2211 55 193 103
352 104 352 2 0 395 -587 874 -1305z m-505 465 c142 -217 259 -400 262 -406 4
-10 -46 -19 -296 -50 l-53 -7 6 -86 c4 -47 22 -291 41 -541 19 -250 35 -461
35 -467 0 -7 6 -13 13 -13 10 0 9 46 -5 228 -10 125 -28 367 -41 537 -13 171
-21 313 -18 317 3 3 82 16 175 28 135 16 171 18 177 8 4 -7 6 -14 4 -16 -2 -3
-77 -14 -167 -26 l-163 -22 2 -75 c1 -77 80 -905 88 -926 3 -10 45 -13 160
-13 l155 0 0 48 c0 26 -11 236 -25 467 -14 231 -25 442 -25 470 l0 49 34 -54
34 -55 22 -473 c13 -260 20 -475 17 -478 -7 -7 -42 -9 -611 -34 l-438 -20
-200 -121 c-109 -67 -200 -120 -202 -118 -6 9 747 2260 754 2252 4 -4 124
-186 265 -403z m299 -562 c3 -35 15 -227 26 -428 11 -201 23 -398 26 -437 l6
-73 -141 0 c-140 0 -141 0 -141 23 0 12 -20 227 -44 477 -25 250 -43 457 -40
459 5 5 233 38 276 40 25 1 27 -1 32 -61z m415 -531 c149 -230 274 -424 277
-431 4 -10 -26 -15 -143 -20 -81 -3 -201 -9 -265 -12 l-116 -6 -6 43 c-3 24
-12 208 -21 409 -8 201 -17 387 -20 414 -4 42 -2 47 9 35 7 -8 135 -202 285
-432z m4201 250 c0 -2 -12 -14 -27 -28 l-28 -24 24 28 c23 25 31 32 31 24z
m-50 -61 c0 -2 -8 -10 -17 -17 -16 -13 -17 -12 -4 4 13 16 21 21 21 13z m-40
-50 c0 -2 -8 -10 -17 -17 -16 -13 -17 -12 -4 4 13 16 21 21 21 13z m-4618
-1433 c-40 -2 -103 -2 -140 0 -37 2 -4 3 73 3 77 0 107 -2 67 -3z m-792 -15
c-272 -6 -496 -11 -498 -13 -2 -1 7 -66 19 -143 l23 -140 130 -6 c72 -3 619
-8 1216 -11 1247 -6 3583 -25 3587 -28 3 -3 39 -926 103 -2642 5 -148 12 -316
16 -372 l5 -103 -25 0 c-14 0 -108 15 -208 34 -101 19 -403 76 -673 126 -269
50 -656 122 -860 160 -439 82 -1133 211 -1510 281 -552 103 -545 101 -545 118
0 9 -7 75 -15 146 -8 72 -46 420 -85 775 -106 969 -120 1093 -124 1097 -11 12
-470 32 -588 27 -128 -7 -138 -8 -138 -27 0 -10 29 -290 65 -621 124 -1144
137 -1267 133 -1271 -3 -4 -218 51 -223 57 -1 2 -37 275 -79 608 -43 333 -115
902 -162 1266 -46 364 -84 666 -84 672 0 16 70 18 570 18 l445 1 -495 -9z
m11060 -182 c0 -13 -3 -38 -6 -55 -6 -29 -10 -31 -48 -31 -22 0 -57 3 -76 6
-34 6 -35 6 -32 49 4 50 8 51 105 54 54 1 57 0 57 -23z m-184 -28 c-9 -54 -12
-58 -47 -58 -29 0 -30 1 -24 38 10 59 13 62 46 62 31 0 32 0 25 -42z m-123
-15 c2 -5 1 -30 -2 -58 l-6 -50 -28 43 c-44 68 -44 72 -4 72 20 0 38 -3 40 -7z
m70 -385 c-23 -178 -61 -465 -83 -638 -127 -965 -149 -1133 -153 -1136 -8 -9
-57 16 -57 28 0 11 110 860 235 1813 36 277 30 255 68 255 l33 0 -43 -322z
m202 316 c20 -5 18 -25 -117 -1042 -76 -570 -140 -1038 -142 -1040 -2 -2 -38
-6 -78 -9 l-75 -6 18 134 c18 135 51 382 179 1364 39 297 73 555 76 573 6 32
7 32 63 32 31 0 65 -3 76 -6z m-1040 -59 c434 -5 715 -13 723 -20 2 -2 -2 -22
-9 -45 -11 -37 -15 -41 -37 -35 -14 3 -407 6 -875 5 l-850 0 7 37 c3 21 6 46
6 57 0 18 10 18 283 12 155 -3 494 -8 752 -11z m436 -1035 c-61 -487 -118
-949 -127 -1027 -17 -138 -18 -143 -41 -143 -13 0 -281 -42 -596 -94 -925
-153 -967 -159 -972 -154 -3 3 48 486 114 1074 65 588 119 1041 120 1007 1
-53 4 -63 19 -63 19 -1 1546 82 1549 84 0 1 6 46 13 101 12 106 20 142 27 115
2 -8 -46 -413 -106 -900z m-1494 743 c-3 -10 -5 -4 -5 12 0 17 2 24 5 18 2 -7
2 -21 0 -30z m-8917 -115 c1 -7 49 -418 109 -913 59 -495 104 -902 100 -905
-14 -9 -129 -33 -135 -28 -3 4 -204 1825 -204 1854 0 2 29 4 65 4 45 0 65 -4
65 -12z m10553 -1647 l23 -9 -12 -89 c-7 -48 -13 -89 -13 -90 -1 -1 -15 3 -32
9 -27 9 -30 14 -25 42 3 17 8 57 12 89 7 60 9 62 47 48z m192 -73 c-4 -40 -10
-76 -14 -81 -4 -4 -40 -14 -80 -21 l-73 -14 7 61 c14 128 10 124 109 126 l58
1 -7 -72z m-485 -116 c0 -22 -30 -256 -34 -259 -1 -1 -128 -27 -281 -57 -154
-30 -511 -101 -794 -156 -282 -56 -515 -99 -517 -97 -3 2 3 77 13 166 l17 161
31 5 c16 3 356 59 755 124 399 66 736 121 750 124 50 9 60 7 60 -11z m-10340
-20 l105 -29 14 -117 c7 -65 11 -120 7 -123 -7 -7 -206 18 -211 27 -4 6 -35
234 -35 257 0 17 -1 17 120 -15z m303 -24 c3 -18 9 -60 12 -93 4 -33 9 -67 11
-76 3 -12 -15 -24 -67 -48 -40 -17 -73 -30 -75 -28 -4 4 -31 241 -28 245 4 6
98 30 120 31 17 1 23 -6 27 -31z m752 -178 c88 -16 329 -61 535 -99 206 -39
571 -106 810 -151 239 -44 530 -98 645 -120 116 -22 379 -71 585 -109 206 -39
510 -96 675 -127 165 -31 314 -56 332 -56 l31 0 6 -147 c3 -80 9 -198 12 -262
l6 -117 -94 23 c-51 12 -347 84 -658 160 -311 75 -684 166 -830 201 -146 36
-395 97 -555 135 -159 39 -382 93 -495 120 -113 28 -270 66 -350 85 -80 20
-253 62 -385 94 -132 32 -283 68 -335 80 -52 13 -96 24 -98 25 -4 3 -32 245
-32 277 0 20 4 25 18 22 9 -2 89 -17 177 -34z"/>
<path d="M5801 8079 c-95 -237 -171 -432 -169 -433 2 -2 1492 442 1708 510
l55 17 -115 27 c-63 15 -376 89 -695 164 -319 75 -587 139 -595 142 -12 3 -54
-92 -189 -427z"/>
<path d="M5690 6304 c-151 -12 -293 -23 -316 -23 l-40 -1 -297 -445 c-290
-434 -297 -446 -282 -469 13 -20 27 -25 88 -30 121 -9 577 -29 580 -25 2 2
130 207 284 454 l281 450 -10 55 c-5 30 -10 55 -11 56 -1 0 -126 -10 -277 -22z
m228 -26 c-8 -13 -131 -216 -273 -452 l-259 -429 -245 6 c-135 4 -272 7 -303
7 l-57 0 280 418 c251 375 283 418 312 425 17 4 140 16 272 26 323 25 290 25
273 -1z m32 -38 c0 -11 -118 -208 -261 -438 -293 -467 -267 -427 -275 -420 -6
7 518 878 528 878 5 0 8 -9 8 -20z m-567 -875 c4 -8 3 -16 -1 -18 -4 -1 -140
5 -302 14 l-295 16 296 1 c253 2 298 0 302 -13z"/>
<path d="M5566 6218 c-115 -4 -210 -9 -211 -10 -15 -18 -515 -759 -515 -763 0
-3 114 -5 254 -5 l254 0 231 389 c127 214 231 392 231 395 0 3 -8 5 -17 4 -10
0 -112 -5 -227 -10z m186 -50 c-11 -18 -106 -179 -212 -358 -106 -179 -198
-331 -204 -338 -9 -9 -65 -12 -234 -10 l-223 3 246 362 246 362 112 4 c62 1
152 4 200 5 l89 2 -20 -32z"/>
<path d="M8395 6364 c-63 -10 -143 -37 -210 -72 -81 -42 -234 -187 -279 -265
l-28 -47 11 -783 c6 -430 11 -840 11 -911 l0 -129 558 7 c306 4 558 9 560 11
2 1 7 389 12 861 l9 859 -24 68 c-32 94 -79 169 -150 242 -72 74 -134 112
-223 137 -68 18 -194 30 -247 22z m255 -60 c124 -42 237 -149 308 -294 l37
-75 -4 -860 c-2 -473 -5 -863 -8 -867 -2 -5 -237 -8 -522 -8 l-519 0 -6 223
c-3 122 -10 519 -14 882 l-8 660 25 45 c38 69 185 210 261 250 106 56 169 70
290 66 66 -2 125 -10 160 -22z"/>
<path d="M8369 6216 c-112 -31 -232 -124 -313 -244 l-46 -67 10 -615 c5 -338
10 -690 10 -782 l0 -168 444 0 443 0 7 148 c3 81 6 422 7 757 2 600 1 611 -20
665 -41 108 -117 206 -199 259 -88 56 -236 76 -343 47z m264 -36 c109 -41 206
-148 256 -283 20 -54 21 -76 21 -365 0 -169 -3 -499 -7 -734 l-6 -428 -64 0
-63 0 0 151 0 150 55 -6 55 -7 0 55 0 55 -55 7 -56 7 3 156 3 157 48 -3 47 -4
0 50 0 50 -49 7 -48 6 -7 82 c-3 45 -6 120 -6 166 l0 84 40 -7 40 -6 0 40 c0
22 0 43 0 48 1 4 -14 9 -32 12 l-33 5 4 127 3 126 -30 44 c-45 65 -126 136
-190 166 -50 24 -69 27 -157 26 -83 0 -112 -5 -170 -27 -38 -14 -71 -25 -72
-23 -5 5 98 82 134 100 98 49 230 56 336 16z m-91 -110 c59 -22 119 -69 169
-133 l39 -49 0 -129 c0 -120 -1 -129 -19 -129 -11 0 -168 18 -350 40 -182 22
-333 40 -336 40 -3 0 -5 44 -5 98 0 94 2 101 31 146 42 64 151 116 289 140 41
7 132 -5 182 -24z m163 -463 c104 -11 110 -13 113 -36 4 -23 2 -24 -50 -19
-29 3 -205 19 -390 34 l-338 29 0 35 0 36 278 -33 c152 -18 327 -39 387 -46z
m-355 -42 c157 -13 309 -27 338 -30 l52 -6 0 -166 0 -165 -87 6 c-49 3 -178
11 -288 16 -110 6 -228 13 -262 16 l-63 6 0 174 c0 135 3 174 13 174 7 0 141
-11 297 -25z m135 -375 c182 -11 338 -20 348 -20 11 0 17 -8 17 -25 0 -24 -2
-25 -62 -25 -47 0 -726 28 -734 30 -1 0 -4 14 -6 30 l-5 30 56 0 c31 0 205 -9
386 -20z m98 -87 l167 -6 0 -160 0 -160 -207 7 c-115 3 -272 9 -350 13 l-143
6 0 160 0 160 183 -7 c100 -3 257 -9 350 -13z m-208 -338 c132 -3 295 -8 363
-11 l122 -7 0 -28 c0 -28 -1 -29 -52 -29 -59 0 -495 17 -655 26 l-103 6 0 30
c0 29 1 29 43 24 23 -3 150 -8 282 -11z m227 -92 l136 -6 7 -91 c4 -50 5 -118
3 -151 l-3 -60 -347 -3 -348 -3 0 167 0 167 208 -6 c114 -4 269 -10 344 -14z"/>
<path d="M7234 3406 c-3 -8 -21 -17 -40 -21 l-35 -6 6 -112 c7 -124 23 -540
55 -1372 12 -302 23 -565 26 -582 3 -23 10 -33 23 -33 27 0 2004 190 2006 193
1 1 43 423 94 937 51 514 95 952 98 973 l6 37 -1117 0 c-949 0 -1117 -2 -1122
-14z m2196 -23 c-1 -40 -188 -1874 -191 -1877 -6 -6 -1873 -183 -1879 -179 -3
3 -86 1872 -89 2025 l-1 28 668 3 c367 1 853 3 1080 5 226 1 412 -1 412 -5z
m-2156 -953 c20 -503 40 -959 43 -1012 6 -95 5 -98 -16 -98 -11 0 -21 3 -21 8
0 4 -9 223 -20 487 -63 1551 -63 1527 -49 1536 8 4 17 5 20 1 3 -4 23 -419 43
-922z"/>
<path d="M8816 3248 c-3 -29 -19 -404 -37 -833 -17 -429 -32 -786 -35 -792 -2
-7 -19 -13 -39 -13 l-35 0 0 78 c0 42 4 183 10 312 5 129 17 417 25 640 8 223
18 460 21 528 l6 122 -332 0 -333 0 6 -457 c4 -252 10 -646 14 -875 l6 -418
-46 0 -45 0 -6 63 c-3 34 -8 334 -11 667 -3 333 -8 698 -12 813 l-6 207 -278
0 -279 0 0 -117 c0 -65 5 -318 10 -563 6 -245 14 -617 19 -828 5 -211 11 -385
13 -387 2 -3 114 9 249 25 635 77 1425 170 1450 170 15 0 31 5 34 10 9 15 167
1681 160 1689 -4 3 -123 8 -265 9 l-258 4 -6 -54z m504 -9 c0 -37 -149 -1601
-153 -1605 -1 -2 -24 10 -50 27 -46 28 -47 30 -47 80 0 28 5 103 10 167 6 64
28 358 50 652 22 294 43 572 46 618 5 55 3 82 -4 82 -14 0 -15 -15 -62 -645
-58 -784 -69 -907 -75 -914 -8 -8 -256 -28 -260 -21 -2 3 5 201 15 440 11 239
24 550 30 690 5 140 13 301 16 358 l6 102 239 0 239 0 0 -31z m-1370 -61 c0
-46 5 -417 11 -826 6 -409 10 -744 8 -746 -2 -2 -111 -11 -243 -20 -131 -9
-242 -19 -246 -21 -13 -8 -19 158 -30 760 -5 308 -13 644 -16 748 l-7 187 262
0 261 0 0 -82z m747 -100 c-22 -662 -49 -1358 -53 -1383 l-4 -31 -258 -25
c-141 -14 -260 -24 -263 -23 -3 2 -9 279 -13 616 -3 337 -9 706 -13 821 l-6
207 308 0 308 0 -6 -182z m402 -1435 l46 -27 -230 -27 c-126 -15 -498 -59
-826 -98 -329 -39 -602 -71 -608 -71 -7 0 -11 24 -11 63 l0 64 208 12 c114 6
226 14 250 17 41 5 42 5 42 -25 l0 -31 76 0 77 0 -7 30 c-4 20 -1 32 7 35 12
5 475 55 503 55 8 0 14 -10 14 -25 0 -24 2 -25 65 -25 l65 0 0 29 c0 29 1 30
68 36 37 3 76 7 87 9 75 12 130 5 174 -21z"/>
<path d="M4317 3240 c-163 -9 -299 -19 -302 -22 -3 -3 26 -327 65 -721 38
-393 70 -722 70 -730 0 -11 26 -15 123 -21 244 -13 453 -26 510 -32 l57 -6 -5
53 c-2 30 -9 351 -15 714 -6 363 -13 679 -16 702 -4 30 -11 44 -25 48 -10 4
-19 13 -19 21 0 18 -43 17 -443 -6z m417 -287 c12 -494 25 -947 31 -1076 l6
-128 -63 6 c-35 3 -166 12 -291 19 -125 8 -229 15 -231 17 -4 6 -137 1391
-134 1395 4 4 661 41 669 37 3 -1 9 -123 13 -270z m33 205 c-3 -7 -5 -2 -5 12
0 14 2 19 5 13 2 -7 2 -19 0 -25z"/>
<path d="M4493 3153 c-62 -2 -113 -7 -113 -11 0 -4 25 -299 55 -657 30 -357
55 -660 55 -673 0 -22 1 -23 113 -20 l112 3 -3 135 c-3 161 -19 743 -28 1028
l-6 202 -37 -2 c-20 -1 -87 -4 -148 -5z m170 -270 c4 -137 12 -429 19 -651 6
-221 8 -405 4 -409 -4 -4 -44 -7 -89 -8 l-82 0 -17 205 c-9 113 -33 393 -53
622 -19 229 -35 430 -35 447 0 35 7 37 151 40 l96 1 6 -247z"/>
<path d="M4114 3093 c7 -59 50 -560 87 -1008 11 -137 22 -256 24 -262 3 -9 34
-13 107 -13 l103 0 -8 113 c-4 61 -27 362 -50 667 l-42 555 -114 3 -113 3 6
-58z m194 22 c5 -4 102 -1227 102 -1278 0 -11 -133 -8 -150 3 -11 7 -25 133
-67 612 -28 332 -52 620 -53 642 l0 39 83 -8 c45 -4 83 -8 85 -10z"/>
<path d="M3027 3220 c-175 -10 -320 -19 -322 -21 -3 -4 31 -346 114 -1157 10
-100 20 -184 22 -186 2 -2 94 -9 204 -15 110 -7 254 -16 319 -21 66 -5 122 -7
124 -5 5 4 -13 912 -24 1212 -6 157 -8 173 -25 178 -10 4 -19 13 -19 21 0 17
26 17 -393 -6z m357 -32 c2 -7 11 -296 20 -643 9 -346 18 -643 19 -660 2 -26
-1 -30 -23 -29 -14 1 -135 7 -270 14 -135 7 -248 16 -252 19 -4 4 -15 72 -23
151 -45 430 -114 1124 -112 1126 3 3 495 31 575 33 42 1 64 -3 66 -11z"/>
<path d="M2800 3122 c0 -10 18 -217 40 -462 22 -245 45 -509 52 -587 6 -78 15
-148 19 -154 8 -14 199 -26 199 -13 -2 51 -98 1215 -101 1218 -2 2 -50 6 -106
9 -93 6 -103 5 -103 -11z m194 -69 c9 -82 86 -1068 86 -1098 0 -24 -2 -25 -74
-25 l-75 0 -5 43 c-5 37 -25 252 -85 940 l-17 197 82 0 82 0 6 -57z"/>
<path d="M3113 3133 c-52 -4 -53 -5 -53 -36 0 -66 103 -1202 109 -1210 4 -4
53 -4 110 -1 l102 7 -5 111 c-3 61 -11 291 -16 511 -6 220 -13 451 -16 513
l-6 112 -86 -2 c-48 -1 -111 -3 -139 -5z m207 -65 c0 -29 7 -260 15 -513 8
-253 15 -502 15 -552 l0 -93 -83 0 -83 0 -48 558 c-26 306 -50 576 -53 599
l-6 42 89 4 c49 1 104 4 122 5 l32 2 0 -52z"/>
</g>
</svg>
